<?xml version="1.0" encoding="UTF-8"?>
<svg id="Layer_1" data-name="Layer 1" xmlns="http://www.w3.org/2000/svg" version="1.1" viewBox="0 0 1000 1000">
  <defs>
    <style>
      .cls-1 {
        fill: #35c8ff;
      }

      .cls-1, .cls-2, .cls-3, .cls-4, .cls-5, .cls-6 {
        stroke-width: 0px;
      }

      .cls-2 {
        fill: #fe5152;
      }

      .cls-3 {
        fill: #8ff1f9;
      }

      .cls-4 {
        fill: #07162b;
      }

      .cls-5 {
        fill: #fff;
      }

      .cls-6 {
        fill: #ff8f9d;
      }
    </style>
  </defs>
  <g>
    <path class="cls-1" d="M498.55,463.43c0,30.03,24.34,54.37,54.37,54.37,21.06,0,39.31-11.98,48.34-29.49,25.39-.68,45.77-21.46,45.77-47.02,0-5.7-1.01-11.16-2.87-16.21,19.06-6.01,32.88-23.83,32.88-44.88,0-9.35-2.74-18.06-7.44-25.38,4.7-7.32,7.44-16.03,7.44-25.38,0-21.05-13.82-38.87-32.88-44.88,1.85-5.05,2.87-10.51,2.87-16.21,0-25.56-20.38-46.34-45.77-47.02-9.03-17.51-27.28-29.49-48.34-29.49-30.03,0-54.37,24.34-54.37,54.37v217.23Z"/>
    <path class="cls-4" d="M552.91,526.66c-34.86,0-63.23-28.36-63.23-63.23v-217.23c0-34.86,28.36-63.23,63.23-63.23,22.06,0,42.2,11.32,53.7,29.86,12.67,1.5,24.37,7.24,33.38,16.48,10.24,10.5,15.88,24.36,15.88,39.03,0,3.71-.36,7.37-1.07,10.96,18.9,9.3,31.09,28.51,31.09,50.13,0,8.87-2.09,17.55-6.09,25.38,4,7.84,6.09,16.51,6.09,25.38,0,21.61-12.2,40.82-31.09,50.13.71,3.59,1.07,7.25,1.07,10.96,0,14.67-5.64,28.53-15.88,39.03-9.01,9.24-20.72,14.99-33.38,16.48-11.5,18.54-31.64,29.86-53.7,29.86ZM552.91,200.7c-25.09,0-45.5,20.41-45.5,45.5v217.23c0,25.09,20.41,45.5,45.5,45.5,17.1,0,32.6-9.46,40.46-24.69l2.4-4.66,5.24-.14c20.83-.56,37.15-17.32,37.15-38.16,0-4.53-.78-8.95-2.32-13.16l-3.2-8.71,8.85-2.79c15.96-5.04,26.69-19.67,26.69-36.43,0-7.32-2.09-14.44-6.04-20.59l-3.07-4.79,3.07-4.79c3.95-6.15,6.04-13.27,6.04-20.59,0-16.75-10.72-31.39-26.69-36.43l-8.85-2.79,3.2-8.71c1.54-4.2,2.32-8.63,2.32-13.16,0-20.84-16.32-37.6-37.15-38.16l-5.24-.14-2.4-4.66c-7.85-15.23-23.36-24.69-40.46-24.69Z"/>
  </g>
  <g>
    <circle class="cls-3" cx="732.03" cy="354.81" r="22.46"/>
    <path class="cls-4" d="M732.03,386.13c-17.27,0-31.32-14.05-31.32-31.32s14.05-31.32,31.32-31.32,31.32,14.05,31.32,31.32-14.05,31.32-31.32,31.32ZM732.03,341.22c-7.49,0-13.59,6.1-13.59,13.59s6.1,13.59,13.59,13.59,13.59-6.1,13.59-13.59-6.1-13.59-13.59-13.59Z"/>
  </g>
  <circle class="cls-4" cx="732.03" cy="354.81" r="6.67"/>
  <path class="cls-4" d="M709.58,363.68h-81.73c-4.89,0-8.86-3.97-8.86-8.86s3.97-8.86,8.86-8.86h81.73c4.89,0,8.86,3.97,8.86,8.86s-3.97,8.86-8.86,8.86Z"/>
  <path class="cls-4" d="M520.52,318.06h-21.92v-17.72h21.92c12.41,0,22.51-10.1,22.51-22.51v-37.59h17.72v37.59c0,22.19-18.05,40.24-40.24,40.24Z"/>
  <circle class="cls-4" cx="551.89" cy="238.07" r="13.74"/>
  <path class="cls-4" d="M537.76,363.68h-39.16v-17.72h39.16c21.93,0,41.76-13,50.5-33.11l16.15-37.15h39.75v17.72h-28.13l-11.51,26.49c-11.56,26.59-37.76,43.77-66.76,43.77Z"/>
  <path class="cls-4" d="M560.76,469.4h-17.72v-37.59c0-12.41-10.1-22.51-22.51-22.51h-21.92v-17.72h21.92c22.19,0,40.24,18.05,40.24,40.24v37.59Z"/>
  <circle class="cls-4" cx="551.89" cy="471.56" r="13.74"/>
  <path class="cls-4" d="M644.15,433.94h-39.75l-16.15-37.15c-8.75-20.12-28.57-33.11-50.5-33.11h-39.16v-17.72h39.16c28.99,0,55.2,17.18,66.76,43.77l11.51,26.49h28.13v17.72Z"/>
  <g>
    <path class="cls-2" d="M498.59,246.2c0-30.03-24.34-54.37-54.37-54.37-21.06,0-39.31,11.98-48.34,29.49-25.39.68-45.77,21.46-45.77,47.02,0,5.7,1.01,11.16,2.87,16.21-19.06,6.01-32.88,23.83-32.88,44.88,0,9.35,2.74,18.06,7.44,25.38-4.7,7.32-7.44,16.03-7.44,25.38,0,21.05,13.82,38.87,32.88,44.88-1.85,5.05-2.87,10.51-2.87,16.21,0,25.56,20.38,46.34,45.77,47.02,9.03,17.51,27.28,29.49,48.34,29.49,30.03,0,54.37-24.34,54.37-54.37v-217.23Z"/>
    <path class="cls-4" d="M444.23,526.66c-22.06,0-42.2-11.32-53.7-29.86-12.67-1.5-24.37-7.24-33.38-16.48-10.24-10.5-15.88-24.36-15.88-39.03,0-3.71.36-7.37,1.07-10.96-18.9-9.3-31.09-28.51-31.09-50.13,0-8.87,2.09-17.55,6.1-25.38-4-7.83-6.1-16.51-6.1-25.38,0-21.61,12.2-40.82,31.09-50.13-.71-3.59-1.07-7.25-1.07-10.96,0-14.67,5.64-28.53,15.88-39.03,9.01-9.24,20.72-14.99,33.38-16.48,11.5-18.54,31.64-29.86,53.7-29.86,34.86,0,63.23,28.36,63.23,63.23v217.23c0,34.86-28.36,63.23-63.23,63.23ZM444.23,200.7c-17.1,0-32.6,9.46-40.46,24.69l-2.4,4.66-5.24.14c-20.83.56-37.15,17.32-37.15,38.16,0,4.53.78,8.95,2.32,13.16l3.2,8.71-8.85,2.79c-15.96,5.04-26.69,19.67-26.69,36.43,0,7.32,2.09,14.44,6.04,20.59l3.07,4.79-3.07,4.79c-3.95,6.15-6.04,13.27-6.04,20.59,0,16.75,10.72,31.39,26.69,36.43l8.85,2.79-3.2,8.71c-1.54,4.2-2.32,8.63-2.32,13.16,0,20.84,16.32,37.6,37.15,38.16l5.24.14,2.4,4.66c7.85,15.23,23.36,24.69,40.46,24.69,25.09,0,45.5-20.41,45.5-45.5v-217.23c0-25.09-20.41-45.5-45.5-45.5Z"/>
  </g>
  <g>
    <circle class="cls-3" cx="265.11" cy="354.81" r="22.46"/>
    <path class="cls-4" d="M265.11,386.13c-17.27,0-31.32-14.05-31.32-31.32s14.05-31.32,31.32-31.32,31.32,14.05,31.32,31.32-14.05,31.32-31.32,31.32ZM265.11,341.22c-7.49,0-13.59,6.1-13.59,13.59s6.1,13.59,13.59,13.59,13.59-6.1,13.59-13.59-6.1-13.59-13.59-13.59Z"/>
  </g>
  <circle class="cls-4" cx="265.11" cy="354.81" r="6.67"/>
  <path class="cls-4" d="M498.59,363.68h-211.03c-4.89,0-8.86-3.97-8.86-8.86s3.97-8.86,8.86-8.86h211.03c4.89,0,8.86,3.97,8.86,8.86s-3.97,8.86-8.86,8.86Z"/>
  <g>
    <circle class="cls-6" cx="382.88" cy="354.81" r="17.96"/>
    <path class="cls-4" d="M382.88,381.64c-14.79,0-26.83-12.03-26.83-26.83s12.03-26.83,26.83-26.83,26.83,12.03,26.83,26.83-12.03,26.83-26.83,26.83ZM382.88,345.71c-5.02,0-9.1,4.08-9.1,9.1s4.08,9.1,9.1,9.1,9.1-4.08,9.1-9.1-4.08-9.1-9.1-9.1Z"/>
  </g>
  <rect class="cls-4" x="431.46" y="289.72" width="17.72" height="130.18"/>
  <g>
    <circle class="cls-3" cx="440.33" cy="271.76" r="17.96"/>
    <path class="cls-4" d="M440.33,298.58c-14.79,0-26.83-12.03-26.83-26.83s12.03-26.83,26.83-26.83,26.83,12.03,26.83,26.83-12.03,26.83-26.83,26.83ZM440.33,262.66c-5.02,0-9.1,4.08-9.1,9.1s4.08,9.1,9.1,9.1,9.1-4.08,9.1-9.1-4.08-9.1-9.1-9.1Z"/>
  </g>
  <g>
    <circle class="cls-3" cx="440.33" cy="435.49" r="17.96"/>
    <path class="cls-4" d="M440.33,462.31c-14.79,0-26.83-12.03-26.83-26.83s12.03-26.83,26.83-26.83,26.83,12.03,26.83,26.83-12.03,26.83-26.83,26.83ZM440.33,426.38c-5.02,0-9.1,4.08-9.1,9.1s4.08,9.1,9.1,9.1,9.1-4.08,9.1-9.1-4.08-9.1-9.1-9.1Z"/>
  </g>
  <g>
    <rect class="cls-5" x="482.46" y="686.44" width="32.18" height="130.37" rx="5.67" ry="5.67"/>
    <circle class="cls-5" cx="498.55" cy="639.08" r="20.61"/>
  </g>
  <path class="cls-5" d="M732.33,621.26h-21.01c-3.08,0-5.58,2.5-5.58,5.58v120.06c0,1.3-1.62,1.89-2.46.9l-99.07-117.09-6.66-7.21c-1.32-1.43-3.18-2.24-5.13-2.24h-14.81c-3.08,0-5.58,2.5-5.58,5.58v184.39c0,3.08,2.5,5.58,5.58,5.58h21.01c3.08,0,5.58-2.5,5.58-5.58v-120.08c0-1.3,1.62-1.89,2.46-.9l99.08,116.32,6.64,7.79c1.33,1.56,3.27,2.45,5.31,2.45h14.64c3.08,0,5.58-2.5,5.58-5.58v-184.39c0-3.08-2.5-5.58-5.58-5.58Z"/>
  <path class="cls-5" d="M356,719.03l76.06-87.5c3.49-4.02.64-10.28-4.69-10.28h-26.86c-1.43.11-2.81.76-3.82,1.92l-63.32,72.84-63.32-72.84c-1.01-1.16-2.4-1.81-3.82-1.91h-26.86c-5.32-.02-8.18,6.24-4.69,10.26l76.06,87.5-76.06,87.5c-3.49,4.02-.64,10.28,4.69,10.28h26.86c1.43-.11,2.81-.76,3.82-1.92l63.32-72.84,63.32,72.84c1.01,1.16,2.4,1.81,3.82,1.91h26.86c5.32.02,8.18-6.24,4.69-10.26l-76.06-87.5Z"/>
</svg>
